<svg width="48" height="48" viewBox="0 0 48 48" fill="none" xmlns="http://www.w3.org/2000/svg">
<path d="M25.5 5.5L34.5 26.5M15 5.5V26.5M20.75 5.5V26.5" stroke="white" stroke-width="1.5" stroke-linecap="round" stroke-linejoin="round"/>
<path d="M12.8409 40V39.52H8.7309V33H8.2109V40H12.8409ZM14.9123 33.57V32.9H14.3023V33.57H14.9123ZM14.8523 40V34.9H14.3623V40H14.8523ZM21.8525 37.45V37.43C21.8525 37.0167 21.7792 36.6467 21.6325 36.32C21.4925 35.9867 21.3059 35.7067 21.0725 35.48C20.8392 35.2533 20.5725 35.08 20.2725 34.96C19.9792 34.84 19.6792 34.78 19.3725 34.78C19.1192 34.78 18.8859 34.8167 18.6725 34.89C18.4659 34.9567 18.2759 35.0467 18.1025 35.16C17.9359 35.2733 17.7825 35.4067 17.6425 35.56C17.5025 35.7133 17.3792 35.8733 17.2725 36.04V32.7H16.7825V40H17.2725V38.9C17.3792 39.06 17.4992 39.2133 17.6325 39.36C17.7725 39.5067 17.9259 39.6367 18.0925 39.75C18.2659 39.8633 18.4592 39.9533 18.6725 40.02C18.8859 40.0867 19.1192 40.12 19.3725 40.12C19.6792 40.12 19.9792 40.06 20.2725 39.94C20.5725 39.8133 20.8392 39.6367 21.0725 39.41C21.3059 39.1767 21.4925 38.8967 21.6325 38.57C21.7792 38.2367 21.8525 37.8633 21.8525 37.45ZM21.3225 37.47C21.3225 37.81 21.2692 38.1167 21.1625 38.39C21.0625 38.6567 20.9225 38.8833 20.7425 39.07C20.5625 39.2567 20.3492 39.4 20.1025 39.5C19.8625 39.6 19.6025 39.65 19.3225 39.65C19.0559 39.65 18.7959 39.5967 18.5425 39.49C18.2959 39.3833 18.0759 39.2367 17.8825 39.05C17.6892 38.8567 17.5325 38.6267 17.4125 38.36C17.2992 38.0867 17.2425 37.7867 17.2425 37.46V37.44C17.2425 37.1133 17.2992 36.8167 17.4125 36.55C17.5325 36.2833 17.6892 36.0533 17.8825 35.86C18.0759 35.6667 18.2959 35.5167 18.5425 35.41C18.7959 35.3033 19.0559 35.25 19.3225 35.25C19.5892 35.25 19.8425 35.3033 20.0825 35.41C20.3292 35.51 20.5425 35.6567 20.7225 35.85C20.9092 36.0367 21.0559 36.2667 21.1625 36.54C21.2692 36.8133 21.3225 37.1167 21.3225 37.45V37.47ZM26.1341 35.36V34.82C25.8808 34.8133 25.6374 34.8467 25.4041 34.92C25.1774 34.9867 24.9674 35.09 24.7741 35.23C24.5808 35.3633 24.4074 35.5267 24.2541 35.72C24.1008 35.9133 23.9741 36.1233 23.8741 36.35V34.9H23.3841V40H23.8741V37.91C23.8741 37.4967 23.9341 37.1333 24.0541 36.82C24.1741 36.5 24.3341 36.2333 24.5341 36.02C24.7408 35.8 24.9774 35.6367 25.2441 35.53C25.5108 35.4167 25.7908 35.36 26.0841 35.36H26.1341ZM31.1141 40V36.82C31.1141 36.1533 30.9241 35.6533 30.5441 35.32C30.1641 34.9867 29.6441 34.82 28.9841 34.82C28.6308 34.82 28.3108 34.86 28.0241 34.94C27.7374 35.02 27.4541 35.1267 27.1741 35.26L27.3541 35.69C27.5874 35.57 27.8341 35.4733 28.0941 35.4C28.3541 35.32 28.6408 35.28 28.9541 35.28C29.4808 35.28 29.8908 35.41 30.1841 35.67C30.4841 35.93 30.6341 36.32 30.6341 36.84V37.06C30.3874 36.9933 30.1341 36.94 29.8741 36.9C29.6141 36.86 29.3041 36.84 28.9441 36.84C28.6108 36.84 28.3074 36.8767 28.0341 36.95C27.7608 37.0233 27.5274 37.13 27.3341 37.27C27.1408 37.41 26.9874 37.5833 26.8741 37.79C26.7674 37.9967 26.7141 38.2333 26.7141 38.5V38.52C26.7141 38.7867 26.7708 39.02 26.8841 39.22C27.0041 39.42 27.1574 39.5867 27.3441 39.72C27.5308 39.8533 27.7408 39.9533 27.9741 40.02C28.2074 40.0867 28.4441 40.12 28.6841 40.12C28.9241 40.12 29.1441 40.09 29.3441 40.03C29.5508 39.9767 29.7341 39.9067 29.8941 39.82C30.0541 39.7267 30.1941 39.6233 30.3141 39.51C30.4408 39.39 30.5474 39.27 30.6341 39.15V40H31.1141ZM30.6441 38.09C30.6441 38.3233 30.5908 38.5367 30.4841 38.73C30.3841 38.9233 30.2441 39.09 30.0641 39.23C29.8908 39.3633 29.6874 39.47 29.4541 39.55C29.2208 39.6233 28.9741 39.66 28.7141 39.66C28.5208 39.66 28.3341 39.6333 28.1541 39.58C27.9741 39.5267 27.8141 39.45 27.6741 39.35C27.5408 39.25 27.4341 39.13 27.3541 38.99C27.2741 38.8433 27.2341 38.6767 27.2341 38.49V38.47C27.2341 38.11 27.3774 37.8233 27.6641 37.61C27.9574 37.39 28.3741 37.28 28.9141 37.28C29.2808 37.28 29.6074 37.3067 29.8941 37.36C30.1808 37.4067 30.4308 37.4567 30.6441 37.51V38.09ZM35.6263 35.36V34.82C35.373 34.8133 35.1296 34.8467 34.8963 34.92C34.6696 34.9867 34.4596 35.09 34.2663 35.23C34.073 35.3633 33.8996 35.5267 33.7463 35.72C33.593 35.9133 33.4663 36.1233 33.3663 36.35V34.9H32.8763V40H33.3663V37.91C33.3663 37.4967 33.4263 37.1333 33.5463 36.82C33.6663 36.5 33.8263 36.2333 34.0263 36.02C34.233 35.8 34.4696 35.6367 34.7363 35.53C35.003 35.4167 35.283 35.36 35.5763 35.36H35.6263ZM41.4102 34.9H40.8702L39.0302 39.46L36.9102 34.9H36.3402L38.7902 39.97C38.6969 40.19 38.6035 40.3767 38.5102 40.53C38.4169 40.6833 38.3202 40.8067 38.2202 40.9C38.1202 41 38.0135 41.07 37.9002 41.11C37.7869 41.15 37.6635 41.17 37.5302 41.17C37.3369 41.17 37.1769 41.1533 37.0502 41.12C36.9235 41.0933 36.7935 41.0467 36.6602 40.98L36.4902 41.41C36.6635 41.4833 36.8269 41.5367 36.9802 41.57C37.1335 41.61 37.3069 41.63 37.5002 41.63C37.8669 41.63 38.1835 41.52 38.4502 41.3C38.7235 41.0867 38.9735 40.7133 39.2002 40.18L41.4102 34.9Z" fill="white"/>
</svg>
