<svg width="48" height="48" viewBox="0 0 48 48" fill="none" xmlns="http://www.w3.org/2000/svg">
<path d="M21 19V26.5H15V13L24 5.5L33 13V26.5H27V19H21Z" fill="white"/>
<path d="M15.8871 40V33H15.3671V36.24H10.8871V33H10.3671V40H10.8871V36.72H15.3671V40H15.8871ZM22.7448 37.45V37.43C22.7448 37.07 22.6781 36.73 22.5448 36.41C22.4181 36.09 22.2381 35.81 22.0048 35.57C21.7715 35.33 21.4948 35.14 21.1748 35C20.8615 34.8533 20.5148 34.78 20.1348 34.78C19.7548 34.78 19.4048 34.8533 19.0848 35C18.7648 35.14 18.4848 35.3333 18.2448 35.58C18.0115 35.8267 17.8281 36.11 17.6948 36.43C17.5681 36.75 17.5048 37.09 17.5048 37.45V37.47C17.5048 37.83 17.5681 38.17 17.6948 38.49C17.8281 38.81 18.0115 39.09 18.2448 39.33C18.4781 39.57 18.7515 39.7633 19.0648 39.91C19.3848 40.05 19.7348 40.12 20.1148 40.12C20.4948 40.12 20.8448 40.05 21.1648 39.91C21.4848 39.7633 21.7615 39.5667 21.9948 39.32C22.2348 39.0733 22.4181 38.79 22.5448 38.47C22.6781 38.15 22.7448 37.81 22.7448 37.45ZM22.2148 37.47C22.2148 37.77 22.1615 38.0533 22.0548 38.32C21.9548 38.5867 21.8115 38.82 21.6248 39.02C21.4448 39.2133 21.2248 39.37 20.9648 39.49C20.7115 39.6033 20.4348 39.66 20.1348 39.66C19.8415 39.66 19.5648 39.6033 19.3048 39.49C19.0515 39.3767 18.8281 39.22 18.6348 39.02C18.4481 38.82 18.3015 38.5867 18.1948 38.32C18.0881 38.0467 18.0348 37.7567 18.0348 37.45V37.43C18.0348 37.13 18.0848 36.8467 18.1848 36.58C18.2915 36.3133 18.4348 36.0833 18.6148 35.89C18.8015 35.69 19.0215 35.5333 19.2748 35.42C19.5348 35.3 19.8148 35.24 20.1148 35.24C20.4081 35.24 20.6815 35.2967 20.9348 35.41C21.1948 35.5233 21.4181 35.68 21.6048 35.88C21.7981 36.08 21.9481 36.3167 22.0548 36.59C22.1615 36.8567 22.2148 37.1433 22.2148 37.45V37.47ZM31.9613 40V36.91C31.9613 36.59 31.9146 36.3 31.8213 36.04C31.7346 35.7733 31.6046 35.55 31.4313 35.37C31.2646 35.1833 31.058 35.04 30.8113 34.94C30.5713 34.8333 30.3013 34.78 30.0013 34.78C29.7613 34.78 29.5446 34.81 29.3513 34.87C29.1646 34.93 28.9946 35.0133 28.8413 35.12C28.6946 35.22 28.5646 35.3367 28.4513 35.47C28.338 35.6033 28.2413 35.74 28.1613 35.88C28.088 35.7333 27.998 35.5933 27.8913 35.46C27.7913 35.3267 27.6713 35.21 27.5313 35.11C27.3913 35.01 27.228 34.93 27.0413 34.87C26.8613 34.81 26.6613 34.78 26.4413 34.78C26.2146 34.78 26.0113 34.81 25.8313 34.87C25.658 34.9233 25.5046 35 25.3713 35.1C25.238 35.1933 25.118 35.3033 25.0113 35.43C24.9113 35.55 24.8213 35.6767 24.7413 35.81V34.9H24.2513V40H24.7413V37.06C24.7413 36.8 24.7813 36.56 24.8613 36.34C24.948 36.12 25.0646 35.9267 25.2113 35.76C25.358 35.5933 25.5313 35.4633 25.7313 35.37C25.9313 35.2767 26.1446 35.23 26.3713 35.23C26.8313 35.23 27.1946 35.3833 27.4613 35.69C27.728 35.99 27.8613 36.4067 27.8613 36.94V40H28.3513V37.03C28.3513 36.7433 28.3946 36.49 28.4813 36.27C28.568 36.0433 28.6846 35.8533 28.8313 35.7C28.978 35.5467 29.148 35.43 29.3413 35.35C29.5413 35.27 29.748 35.23 29.9613 35.23C30.4346 35.23 30.8046 35.3833 31.0713 35.69C31.338 35.99 31.4713 36.4167 31.4713 36.97V40H31.9613ZM33.933 37.65H38.163C38.1697 37.61 38.173 37.58 38.173 37.56C38.173 37.5333 38.173 37.5033 38.173 37.47V37.45C38.173 37.07 38.1163 36.72 38.003 36.4C37.8963 36.0733 37.7397 35.79 37.533 35.55C37.333 35.31 37.0897 35.1233 36.803 34.99C36.5163 34.85 36.193 34.78 35.833 34.78C35.4863 34.78 35.1663 34.85 34.873 34.99C34.5797 35.13 34.323 35.32 34.103 35.56C33.8897 35.8 33.7197 36.0833 33.593 36.41C33.473 36.73 33.413 37.0733 33.413 37.44V37.46C33.413 37.86 33.4797 38.2233 33.613 38.55C33.7463 38.8767 33.9263 39.1567 34.153 39.39C34.3863 39.6233 34.653 39.8033 34.953 39.93C35.2597 40.0567 35.5797 40.12 35.913 40.12C36.3997 40.12 36.8063 40.03 37.133 39.85C37.4663 39.67 37.763 39.44 38.023 39.16L37.683 38.86C37.4697 39.0867 37.223 39.2767 36.943 39.43C36.6697 39.5833 36.333 39.66 35.933 39.66C35.6797 39.66 35.4363 39.6167 35.203 39.53C34.9763 39.4367 34.773 39.3033 34.593 39.13C34.413 38.9567 34.263 38.7467 34.143 38.5C34.023 38.2533 33.953 37.97 33.933 37.65ZM33.933 37.21C33.953 36.93 34.0163 36.67 34.123 36.43C34.2297 36.1833 34.363 35.9733 34.523 35.8C34.6897 35.62 34.883 35.48 35.103 35.38C35.323 35.28 35.5597 35.23 35.813 35.23C36.1063 35.23 36.363 35.2867 36.583 35.4C36.803 35.5067 36.9863 35.6533 37.133 35.84C37.2863 36.02 37.403 36.23 37.483 36.47C37.5697 36.7033 37.623 36.95 37.643 37.21H33.933Z" fill="white"/>
</svg>
