<svg width="20" height="21" viewBox="0 0 20 21" fill="none" xmlns="http://www.w3.org/2000/svg">
<g clip-path="url(#clip0)">
<path d="M18.2443 15.1046C18.2443 15.4384 18.1176 15.7586 17.8919 15.9946C17.6663 16.2307 17.3603 16.3633 17.0413 16.3633H2.60502C2.28596 16.3633 1.97996 16.2307 1.75435 15.9946C1.52874 15.7586 1.402 15.4384 1.402 15.1046V7.55279C1.402 7.21897 1.52874 6.89883 1.75435 6.66279C1.97996 6.42675 2.28596 6.29415 2.60502 6.29415H4.01496C4.97165 6.2936 5.88899 5.89566 6.56537 5.1878L7.56388 4.14565C7.78884 3.91021 8.0938 3.7776 8.41201 3.77687H11.2319C11.5509 3.77694 11.8569 3.90959 12.0824 4.14565L13.0785 5.1878C13.4137 5.5386 13.8117 5.81687 14.2497 6.0067C14.6877 6.19653 15.1572 6.29421 15.6313 6.29415H17.0413C17.3603 6.29415 17.6663 6.42675 17.8919 6.66279C18.1176 6.89883 18.2443 7.21897 18.2443 7.55279V15.1046ZM2.60502 5.03551C1.9669 5.03551 1.35491 5.30072 0.903689 5.7728C0.452468 6.24488 0.198975 6.88516 0.198975 7.55279L0.198975 15.1046C0.198975 15.7722 0.452468 16.4125 0.903689 16.8846C1.35491 17.3567 1.9669 17.6219 2.60502 17.6219H17.0413C17.6794 17.6219 18.2914 17.3567 18.7426 16.8846C19.1938 16.4125 19.4473 15.7722 19.4473 15.1046V7.55279C19.4473 6.88516 19.1938 6.24488 18.7426 5.7728C18.2914 5.30072 17.6794 5.03551 17.0413 5.03551H15.6313C14.9933 5.03536 14.3814 4.77006 13.9303 4.29794L12.9342 3.25579C12.4831 2.78368 11.8712 2.51837 11.2331 2.51823H8.41321C7.77514 2.51837 7.16325 2.78368 6.71214 3.25579L5.71603 4.29794C5.26492 4.77006 4.65303 5.03536 4.01496 5.03551H2.60502Z" fill="white"/>
<path d="M9.82311 13.846C9.02546 13.846 8.26048 13.5145 7.69645 12.9244C7.13242 12.3343 6.81556 11.5339 6.81556 10.6994C6.81556 9.86485 7.13242 9.0645 7.69645 8.4744C8.26048 7.8843 9.02546 7.55279 9.82311 7.55279C10.6208 7.55279 11.3857 7.8843 11.9498 8.4744C12.5138 9.0645 12.8307 9.86485 12.8307 10.6994C12.8307 11.5339 12.5138 12.3343 11.9498 12.9244C11.3857 13.5145 10.6208 13.846 9.82311 13.846ZM9.82311 15.1046C10.9398 15.1046 12.0108 14.6405 12.8004 13.8144C13.5901 12.9882 14.0337 11.8677 14.0337 10.6994C14.0337 9.53104 13.5901 8.41055 12.8004 7.58441C12.0108 6.75827 10.9398 6.29415 9.82311 6.29415C8.7064 6.29415 7.63542 6.75827 6.84579 7.58441C6.05615 8.41055 5.61254 9.53104 5.61254 10.6994C5.61254 11.8677 6.05615 12.9882 6.84579 13.8144C7.63542 14.6405 8.7064 15.1046 9.82311 15.1046ZM3.808 8.1821C3.808 8.34901 3.74463 8.50908 3.63182 8.6271C3.51902 8.74512 3.36602 8.81142 3.20649 8.81142C3.04696 8.81142 2.89396 8.74512 2.78116 8.6271C2.66835 8.50908 2.60498 8.34901 2.60498 8.1821C2.60498 8.0152 2.66835 7.85513 2.78116 7.73711C2.89396 7.61909 3.04696 7.55279 3.20649 7.55279C3.36602 7.55279 3.51902 7.61909 3.63182 7.73711C3.74463 7.85513 3.808 8.0152 3.808 8.1821Z" fill="white"/>
</g>
<defs>
<clipPath id="clip0">
<rect width="19.2484" height="20.1382" fill="white" transform="translate(0.198975 0.000648499)"/>
</clipPath>
</defs>
</svg>
