<svg width="19" height="14" viewBox="0 0 19 14" fill="none" xmlns="http://www.w3.org/2000/svg">
<path d="M0.791667 1.16667C0.791667 0.946759 0.867064 0.761408 1.01786 0.610614C1.17493 0.453537 1.36343 0.374999 1.58333 0.374999H7.125V1.16667H1.58333V10.6667H7.125V11.4583H1.58333C1.36343 11.4583 1.17493 11.3829 1.01786 11.2321C0.867064 11.0751 0.791667 10.8866 0.791667 10.6667V1.16667ZM4.07143 13.7202C3.99603 13.6386 3.95833 13.5443 3.95833 13.4375C3.95833 13.3307 3.99603 13.2396 4.07143 13.1642C4.15311 13.0825 4.24735 13.0417 4.35417 13.0417H7.125V13.8333H4.35417C4.24735 13.8333 4.15311 13.7956 4.07143 13.7202ZM17.4167 0.374999C17.6366 0.374999 17.8219 0.453537 17.9727 0.610614C18.1298 0.761408 18.2083 0.946759 18.2083 1.16667V13.0417C18.2083 13.2616 18.1298 13.4501 17.9727 13.6071C17.8219 13.7579 17.6366 13.8333 17.4167 13.8333H10.2917C10.0718 13.8333 9.88327 13.7579 9.72619 13.6071C9.5754 13.4501 9.5 13.2616 9.5 13.0417V1.16667C9.5 0.946759 9.5754 0.761408 9.72619 0.610614C9.88327 0.453537 10.0718 0.374999 10.2917 0.374999H17.4167ZM10.3011 13.0417L17.4167 13.0322L17.4072 1.17609H10.2917L10.3011 13.0417ZM12.1766 7.40575C12.6415 6.94081 13.2007 6.70833 13.8542 6.70833C14.5076 6.70833 15.0668 6.94081 15.5317 7.40575C15.9967 7.8707 16.2292 8.42989 16.2292 9.08333C16.2292 9.73677 15.9967 10.296 15.5317 10.7609C15.0668 11.2259 14.5076 11.4583 13.8542 11.4583C13.2007 11.4583 12.6415 11.2259 12.1766 10.7609C11.7116 10.296 11.4792 9.73677 11.4792 9.08333C11.4792 8.42989 11.7116 7.8707 12.1766 7.40575ZM12.7326 10.2049C13.0468 10.5127 13.4206 10.6667 13.8542 10.6667C14.2877 10.6667 14.6584 10.5127 14.9663 10.2049C15.2804 9.89071 15.4375 9.51686 15.4375 9.08333C15.4375 8.6498 15.2804 8.2791 14.9663 7.97123C14.6584 7.65708 14.2877 7.5 13.8542 7.5C13.4206 7.5 13.0468 7.65708 12.7326 7.97123C12.4248 8.2791 12.2708 8.6498 12.2708 9.08333C12.2708 9.51686 12.4248 9.89071 12.7326 10.2049ZM14.4102 4.10714C14.2594 4.25794 14.0741 4.33333 13.8542 4.33333C13.6343 4.33333 13.4458 4.25794 13.2887 4.10714C13.1379 3.95007 13.0625 3.76157 13.0625 3.54167C13.0625 3.32176 13.1379 3.13641 13.2887 2.98561C13.4458 2.82854 13.6343 2.75 13.8542 2.75C14.0741 2.75 14.2594 2.82854 14.4102 2.98561C14.5673 3.13641 14.6458 3.32176 14.6458 3.54167C14.6458 3.76157 14.5673 3.95007 14.4102 4.10714Z" fill="white"/>
</svg>
