<svg width="16" height="16" viewBox="0 0 16 16" fill="none" xmlns="http://www.w3.org/2000/svg">
<path d="M13.8016 8.53175L13.0945 7.82464L13.0653 7.85381L13.0386 7.88528L13.8016 8.53175ZM9.39683 13.7302L10.1086 14.4326L10.1352 14.4056L10.1598 14.3766L9.39683 13.7302ZM7.26191 14.1825L6.84017 15.0893L6.85274 15.0951L6.86547 15.1006L7.26191 14.1825ZM6.69841 13.7302L7.49582 13.1267L7.47599 13.1005L7.45448 13.0757L6.69841 13.7302ZM2.19841 8.53175L2.95448 7.87725L2.93095 7.85007L2.90552 7.82464L2.19841 8.53175ZM2.19841 2.73016L1.49131 2.02305L2.19841 2.73016ZM3.92064 1.6746L3.62061 0.720669L3.61839 0.721372L3.92064 1.6746ZM5.9127 1.55555L6.09839 0.572946L6.09839 0.572946L5.9127 1.55555ZM7.69841 2.42857L8.40552 1.72146L8.38249 1.69843L8.358 1.67694L7.69841 2.42857ZM8.15873 2.50794L7.87138 1.55011L7.85687 1.55446L7.8425 1.55925L8.15873 2.50794ZM8.26984 2.46032L8.86983 3.26033L8.92669 3.21768L8.97695 3.16742L8.26984 2.46032ZM8.30159 2.42857L7.66835 1.65461L7.62975 1.6862L7.59448 1.72146L8.30159 2.42857ZM10.0873 1.59524L10.2744 2.57758V2.57758L10.0873 1.59524ZM12.0714 1.69841L11.7855 2.65666L11.7876 2.65729L12.0714 1.69841ZM13.0945 3.43726C13.7045 4.04724 14 4.76054 14 5.63492H16C16 4.23417 15.4966 3.01096 14.5087 2.02305L13.0945 3.43726ZM14 5.63492C14 6.50261 13.7054 7.21368 13.0945 7.82464L14.5087 9.23885C15.4956 8.25193 16 7.03178 16 5.63492H14ZM13.0386 7.88528L8.63388 13.0837L10.1598 14.3766L14.5645 9.17821L13.0386 7.88528ZM8.68505 13.0278C8.46417 13.2516 8.25032 13.3333 8 13.3333V15.3333C8.81847 15.3333 9.53583 15.013 10.1086 14.4326L8.68505 13.0278ZM8 13.3333C7.87396 13.3333 7.76312 13.3097 7.65834 13.2645L6.86547 15.1006C7.22629 15.2564 7.60752 15.3333 8 15.3333V13.3333ZM7.68364 13.2758C7.60084 13.2373 7.54316 13.1893 7.49582 13.1267L5.90101 14.3336C6.14997 14.6626 6.46794 14.9161 6.84017 15.0893L7.68364 13.2758ZM7.45448 13.0757L2.95448 7.87725L1.44234 9.18624L5.94234 14.3846L7.45448 13.0757ZM2.90552 7.82464C2.29456 7.21368 2 6.50261 2 5.63492H0C0 7.03178 0.504379 8.25193 1.49131 9.23885L2.90552 7.82464ZM2 5.63492C2 4.76054 2.29555 4.04724 2.90552 3.43726L1.49131 2.02305C0.503396 3.01096 0 4.23417 0 5.63492H2ZM2.90552 3.43726C3.29313 3.04965 3.72952 2.78426 4.22288 2.62783L3.61839 0.721372C2.81016 0.97764 2.0984 1.41596 1.49131 2.02305L2.90552 3.43726ZM4.22066 2.62853C4.72061 2.47129 5.21782 2.44194 5.72701 2.53816L6.09839 0.572946C5.26367 0.415204 4.43283 0.465216 3.62061 0.720672L4.22066 2.62853ZM5.72701 2.53816C6.22156 2.63162 6.65352 2.84207 7.03882 3.1802L8.358 1.67694C7.70627 1.10501 6.94775 0.733456 6.09839 0.572946L5.72701 2.53816ZM6.99131 3.13568C7.30705 3.45142 7.70041 3.53174 8 3.53174V1.53174C8.03504 1.53174 8.22734 1.54328 8.40552 1.72146L6.99131 3.13568ZM8 3.53174C8.1489 3.53174 8.31058 3.51141 8.47496 3.45662L7.8425 1.55925C7.91164 1.53621 7.96751 1.53174 8 1.53174V3.53174ZM8.44608 3.46576C8.51627 3.4447 8.69871 3.38866 8.86983 3.26033L7.66985 1.66031C7.7112 1.6293 7.74727 1.60789 7.77215 1.59432C7.79764 1.58042 7.81851 1.57088 7.83227 1.56498C7.85857 1.55371 7.87386 1.54937 7.87138 1.55011L8.44608 3.46576ZM8.97695 3.16742L9.00869 3.13568L7.59448 1.72146L7.56274 1.75321L8.97695 3.16742ZM8.93483 3.20253C9.32925 2.87982 9.77103 2.67346 10.2744 2.57758L9.90019 0.612899C9.07024 0.770984 8.32155 1.12018 7.66835 1.65461L8.93483 3.20253ZM10.2744 2.57758C10.7823 2.48084 11.2815 2.50627 11.7855 2.65666L12.3574 0.740161C11.5492 0.499022 10.7256 0.455671 9.90019 0.612899L10.2744 2.57758ZM11.7876 2.65729C12.2876 2.80529 12.7192 3.062 13.0945 3.43726L14.5087 2.02305C13.8998 1.41419 13.178 0.983066 12.3553 0.739536L11.7876 2.65729Z" fill="black"/>
</svg>
