<svg width="24" height="22" viewBox="0 0 24 22" fill="none" xmlns="http://www.w3.org/2000/svg">
<path d="M20.7024 11.7976L19.9953 11.0905L19.9661 11.1197L19.9394 11.1512L20.7024 11.7976ZM14.0952 19.5952L14.807 20.2976L14.8337 20.2706L14.8582 20.2417L14.0952 19.5952ZM10.8929 20.2738L10.4711 21.1805L10.4837 21.1864L10.4964 21.1919L10.8929 20.2738ZM10.0476 19.5952L10.845 18.9918L10.8252 18.9656L10.8037 18.9407L10.0476 19.5952ZM3.29762 11.7976L4.05369 11.1431L4.03015 11.1159L4.00473 11.0905L3.29762 11.7976ZM5.88095 1.5119L5.58093 0.55797L5.57871 0.558673L5.88095 1.5119ZM8.86905 1.33333L9.05474 0.350723L9.05474 0.350723L8.86905 1.33333ZM11.5476 2.64286L12.2547 1.93575L12.2317 1.91272L12.2072 1.89123L11.5476 2.64286ZM12.2381 2.7619L11.9507 1.80408L11.9362 1.80843L11.9219 1.81322L12.2381 2.7619ZM12.4048 2.69047L13.0048 3.49048L13.0616 3.44784L13.1119 3.39758L12.4048 2.69047ZM12.4524 2.64286L11.8191 1.8689L11.7805 1.90048L11.7453 1.93575L12.4524 2.64286ZM15.131 1.39286L15.3181 2.3752L15.3181 2.3752L15.131 1.39286ZM18.1071 1.54762L17.8212 2.50587L17.8233 2.50649L18.1071 1.54762ZM19.9953 3.80234C21.0047 4.81179 21.5 6.00922 21.5 7.45238H23.5C23.5 5.48285 22.7969 3.77551 21.4095 2.38813L19.9953 3.80234ZM21.5 7.45238C21.5 8.88621 21.0057 10.0801 19.9953 11.0905L21.4095 12.5047C22.7959 11.1183 23.5 9.41537 23.5 7.45238H21.5ZM19.9394 11.1512L13.3323 18.9488L14.8582 20.2417L21.4653 12.4441L19.9394 11.1512ZM13.3835 18.8928C12.9642 19.3177 12.5175 19.5 12 19.5V21.5C13.0857 21.5 14.0358 21.0791 14.807 20.2976L13.3835 18.8928ZM12 19.5C11.7443 19.5 11.5105 19.4513 11.2893 19.3557L10.4964 21.1919C10.9736 21.3979 11.4779 21.5 12 21.5V19.5ZM11.3146 19.3671C11.118 19.2757 10.9664 19.1522 10.845 18.9918L9.25021 20.1987C9.57325 20.6255 9.98514 20.9545 10.4711 21.1805L11.3146 19.3671ZM10.8037 18.9407L4.05369 11.1431L2.54155 12.4521L9.29155 20.2497L10.8037 18.9407ZM4.00473 11.0905C2.9943 10.0801 2.5 8.88621 2.5 7.45238H0.5C0.5 9.41537 1.20411 11.1183 2.59051 12.5047L4.00473 11.0905ZM2.5 7.45238C2.5 6.00922 2.99528 4.81179 4.00473 3.80234L2.59051 2.38813C1.20313 3.77551 0.5 5.48285 0.5 7.45238H2.5ZM4.00473 3.80234C4.64102 3.16605 5.36444 2.72474 6.1832 2.46513L5.57871 0.558673C4.44508 0.918116 3.44628 1.53236 2.59051 2.38813L4.00473 3.80234ZM6.18098 2.46583C7.00897 2.20542 7.83819 2.15622 8.68336 2.31594L9.05474 0.350723C7.88404 0.129489 6.72119 0.199343 5.58093 0.557973L6.18098 2.46583ZM8.68336 2.31594C9.51389 2.47289 10.2435 2.82885 10.888 3.39448L12.2072 1.89123C11.2962 1.09179 10.2401 0.574725 9.05474 0.350723L8.68336 2.31594ZM10.8405 3.34996C11.1906 3.7001 11.6343 3.79762 12 3.79762V1.79762C11.9851 1.79762 12.011 1.79541 12.0618 1.81276C12.1172 1.83173 12.1887 1.86976 12.2547 1.93575L10.8405 3.34996ZM12 3.79762C12.178 3.79762 12.3661 3.77332 12.5543 3.71059L11.9219 1.81322C11.9672 1.79811 11.9966 1.79762 12 1.79762V3.79762ZM12.5254 3.71973C12.6221 3.69074 12.8231 3.62675 13.0048 3.49048L11.8048 1.89047C11.8435 1.86144 11.8764 1.84202 11.8976 1.83043C11.9195 1.81851 11.9362 1.81096 11.9454 1.80704C11.9624 1.79974 11.9665 1.79937 11.9507 1.80408L12.5254 3.71973ZM13.1119 3.39758L13.1595 3.34996L11.7453 1.93575L11.6977 1.98337L13.1119 3.39758ZM13.0856 3.41681C13.7419 2.87982 14.4813 2.53457 15.3181 2.3752L14.9438 0.410518C13.7806 0.632095 12.7342 1.12018 11.8191 1.8689L13.0856 3.41681ZM15.3181 2.3752C16.1593 2.21496 16.9891 2.25759 17.8212 2.50587L18.3931 0.589367C17.2569 0.250344 16.1026 0.189798 14.9438 0.410518L15.3181 2.3752ZM17.8233 2.50649C18.654 2.75238 19.374 3.18105 19.9953 3.80234L21.4095 2.38813C20.5546 1.53323 19.5444 0.930155 18.391 0.588742L17.8233 2.50649Z" fill="white"/>
</svg>
