<svg width="4" height="18" viewBox="0 0 4 18" fill="none" xmlns="http://www.w3.org/2000/svg">
<path d="M3.05952 0.440476C3.35318 0.734127 3.5 1.0873 3.5 1.5C3.5 1.9127 3.35318 2.26587 3.05952 2.55952C2.76587 2.85317 2.4127 3 2 3C1.73016 3 1.48016 2.93254 1.25 2.79762C1.01984 2.6627 0.837302 2.48016 0.702381 2.25C0.567461 2.01984 0.500001 1.76984 0.500001 1.5C0.500001 1.0873 0.646826 0.734127 0.940477 0.440476C1.23413 0.146825 1.5873 -5.42576e-07 2 -5.24537e-07C2.4127 -5.06497e-07 2.76587 0.146825 3.05952 0.440476ZM3.05952 7.94048C3.35318 8.23413 3.5 8.5873 3.5 9C3.5 9.4127 3.35318 9.76587 3.05952 10.0595C2.76587 10.3532 2.4127 10.5 2 10.5C1.5873 10.5 1.23413 10.3532 0.940476 10.0595C0.646825 9.76587 0.5 9.4127 0.5 9C0.5 8.5873 0.646826 8.23413 0.940476 7.94048C1.23413 7.64683 1.5873 7.5 2 7.5C2.4127 7.5 2.76587 7.64683 3.05952 7.94048ZM3.05952 15.4405C3.35317 15.7341 3.5 16.0873 3.5 16.5C3.5 16.9127 3.35317 17.2659 3.05952 17.5595C2.76587 17.8532 2.4127 18 2 18C1.5873 18 1.23413 17.8532 0.940476 17.5595C0.646825 17.2659 0.5 16.9127 0.5 16.5C0.5 16.0873 0.646825 15.7341 0.940476 15.4405C1.23413 15.1468 1.5873 15 2 15C2.4127 15 2.76587 15.1468 3.05952 15.4405Z" fill="white"/>
</svg>
