<svg width="23" height="25" viewBox="0 0 23 25" fill="none" xmlns="http://www.w3.org/2000/svg">
<path d="M2.19444 1.42361C1.83565 1.2037 1.47685 1.2037 1.11805 1.42361C0.747683 1.63194 0.562498 1.94444 0.562498 2.36111V22.6389C0.562498 23.0556 0.747683 23.3738 1.11805 23.5937C1.47685 23.8021 1.83565 23.7963 2.19444 23.5764L18.0625 14.4271V23.4375C18.0625 23.7384 18.1725 23.9988 18.3924 24.2187C18.6007 24.4271 18.8553 24.5312 19.1562 24.5312H21.3437C21.6447 24.5312 21.9051 24.4271 22.125 24.2187C22.3333 23.9988 22.4375 23.7384 22.4375 23.4375V1.5625C22.4375 1.26157 22.3333 1.00694 22.125 0.79861C21.9051 0.578702 21.6447 0.468748 21.3437 0.468748H19.1562C18.8553 0.468748 18.6007 0.578702 18.3924 0.79861C18.1725 1.00694 18.0625 1.26157 18.0625 1.5625V10.5729L2.19444 1.42361Z" fill="white"/>
</svg>
