<svg width="23" height="25" viewBox="0 0 23 25" fill="none" xmlns="http://www.w3.org/2000/svg">
<path d="M20.8056 1.42361C21.1644 1.2037 21.5232 1.2037 21.8819 1.42361C22.2523 1.63194 22.4375 1.94444 22.4375 2.36111V22.6389C22.4375 23.0556 22.2523 23.3738 21.8819 23.5937C21.5232 23.8021 21.1644 23.7963 20.8056 23.5764L4.9375 14.4271V23.4375C4.9375 23.7384 4.82755 23.9988 4.60764 24.2187C4.39931 24.4271 4.14468 24.5312 3.84375 24.5312H1.65625C1.35532 24.5312 1.09491 24.4271 0.875 24.2187C0.666667 23.9988 0.562501 23.7384 0.562501 23.4375V1.5625C0.562501 1.26157 0.666667 1.00694 0.875 0.79861C1.09491 0.578702 1.35532 0.468748 1.65625 0.468748H3.84375C4.14468 0.468748 4.39931 0.578702 4.60764 0.79861C4.82755 1.00694 4.9375 1.26157 4.9375 1.5625V10.5729L20.8056 1.42361Z" fill="white"/>
</svg>
