<svg width="20" height="24" viewBox="0 0 20 24" fill="none" xmlns="http://www.w3.org/2000/svg">
<path d="M14 1.50793C14 1.2328 14.0952 0.999998 14.2857 0.809523C14.4868 0.608464 14.7249 0.507935 15 0.507935H19C19.2751 0.507935 19.5079 0.608464 19.6984 0.809523C19.8995 0.999998 20 1.2328 20 1.50793V22.5079C20 22.7725 19.8995 23.0053 19.6984 23.2063C19.5079 23.4074 19.2751 23.5079 19 23.5079H15C14.7249 23.5079 14.4868 23.4074 14.2857 23.2063C14.0952 23.0053 14 22.7725 14 22.5079V1.50793ZM1 23.5079C0.724868 23.5079 0.486773 23.4074 0.285715 23.2063C0.0952385 23.0053 4.76837e-07 22.7725 4.76837e-07 22.5079V1.50793C4.76837e-07 1.2328 0.0952385 0.999998 0.285715 0.809523C0.486773 0.608464 0.724868 0.507935 1 0.507935H5C5.27513 0.507935 5.50794 0.608464 5.69841 0.809523C5.89947 0.999998 6 1.2328 6 1.50793V22.5079C6 22.7725 5.89947 23.0053 5.69841 23.2063C5.50794 23.4074 5.27513 23.5079 5 23.5079H1Z" fill="#181718"/>
</svg>
