<svg width="11" height="12" viewBox="0 0 11 12" fill="none" xmlns="http://www.w3.org/2000/svg">
<path d="M0.5 12C0.367392 12 0.240215 11.9473 0.146447 11.8536C0.0526785 11.7598 0 11.6326 0 11.5V0.500006C1.48755e-05 0.413121 0.0226703 0.327739 0.0657334 0.252276C0.108797 0.176813 0.170781 0.113874 0.245577 0.0696632C0.320372 0.0254518 0.405398 0.00149397 0.492273 0.000151274C0.579148 -0.00119143 0.664873 0.0201274 0.741 0.0620061L10.741 5.56201C10.8194 5.60517 10.8848 5.66858 10.9303 5.74562C10.9758 5.82267 10.9998 5.91052 10.9998 6.00001C10.9998 6.0895 10.9758 6.17735 10.9303 6.25439C10.8848 6.33143 10.8194 6.39484 10.741 6.43801L0.741 11.938C0.667175 11.9787 0.584275 12 0.5 12Z" fill="white"/>
</svg>
