<svg width="16" height="16" viewBox="0 0 16 16" fill="none" xmlns="http://www.w3.org/2000/svg">
<path d="M10 2.75397C10 2.6164 10.0476 2.5 10.1429 2.40476C10.2434 2.30423 10.3624 2.25397 10.5 2.25397H12.5C12.6376 2.25397 12.754 2.30423 12.8492 2.40476C12.9497 2.5 13 2.6164 13 2.75397V13.254C13 13.3862 12.9497 13.5026 12.8492 13.6032C12.754 13.7037 12.6376 13.754 12.5 13.754H10.5C10.3624 13.754 10.2434 13.7037 10.1429 13.6032C10.0476 13.5026 10 13.3862 10 13.254V2.75397ZM3.5 13.754C3.36243 13.754 3.24339 13.7037 3.14286 13.6032C3.04762 13.5026 3 13.3862 3 13.254V2.75397C3 2.6164 3.04762 2.5 3.14286 2.40476C3.24339 2.30423 3.36243 2.25397 3.5 2.25397H5.5C5.63757 2.25397 5.75397 2.30423 5.84921 2.40476C5.94974 2.5 6 2.6164 6 2.75397V13.254C6 13.3862 5.94974 13.5026 5.84921 13.6032C5.75397 13.7037 5.63757 13.754 5.5 13.754H3.5Z" fill="white"/>
</svg>
