<svg width="22" height="22" viewBox="0 0 22 22" fill="none" xmlns="http://www.w3.org/2000/svg">
<path d="M19.8671 17.0072C19.2778 16.4819 18.7619 15.8796 18.3332 15.2167C17.8652 14.3016 17.5848 13.3022 17.5082 12.2772V9.25835C17.5123 7.64845 16.9283 6.09247 15.866 4.88278C14.8037 3.67308 13.3363 2.89293 11.7393 2.6889C11.3379 2.68889 11.3054 2.70113 10.9999 2.70113C10.6943 2.70113 10.324 2.70113 10.1077 2.70113C10.324 2.70113 9.89129 2.70113 10.1077 2.70113C8.52504 2.91986 7.07531 3.70473 6.02698 4.91036C4.97866 6.11599 4.40277 7.66069 4.40599 9.25835V12.2772C4.32945 13.3022 4.04897 14.3016 3.58099 15.2167C3.15986 15.8781 2.65222 16.4803 2.07155 17.0072C2.00636 17.0645 1.95412 17.135 1.91829 17.214C1.88247 17.2931 1.86388 17.3788 1.86377 17.4656V18.2967C1.86377 18.4588 1.92815 18.6142 2.04276 18.7288C2.15737 18.8434 2.3128 18.9078 2.47488 18.9078H19.4638C19.6258 18.9078 19.7813 18.8434 19.8959 18.7288C20.0105 18.6142 20.0749 18.4588 20.0749 18.2967V17.4656C20.0748 17.3788 20.0562 17.2931 20.0204 17.214C19.9845 17.135 19.9323 17.0645 19.8671 17.0072ZM3.13488 17.6856C3.70346 17.1363 4.20408 16.5208 4.62599 15.8522C5.21548 14.747 5.55942 13.5276 5.63433 12.2772V9.25835C5.61009 8.54215 5.73022 7.8284 5.98757 7.15959C6.24493 6.49078 6.63423 5.88061 7.13231 5.36539C7.63039 4.85017 8.22705 4.44045 8.88677 4.16063C9.54649 3.8808 10.2558 3.7366 10.9724 3.7366C11.689 3.7366 12.3983 3.8808 13.058 4.16063C13.7177 4.44045 14.3144 4.85017 14.8125 5.36539C15.3105 5.88061 15.6998 6.49078 15.9572 7.15959C16.2145 7.8284 16.3347 8.54215 16.3104 9.25835V12.2772C16.3853 13.5276 16.7293 14.747 17.3188 15.8522C17.7407 16.5208 18.2413 17.1363 18.8099 17.6856H3.13488Z" fill="white"/>
<path fill-rule="evenodd" clip-rule="evenodd" d="M11 20.1667C11.3375 20.1667 11.6111 19.8931 11.6111 19.5556C11.6111 19.5556 11.6111 19.5556 11.6111 19.5555H12.5767C12.5206 19.9365 12.3315 20.2853 12.043 20.5403C11.7545 20.7953 11.385 20.94 11.0001 20.9489C10.6046 20.9546 10.2205 20.8165 9.91921 20.5602C9.61795 20.3039 9.42004 19.9468 9.3623 19.5555H10.3889C10.3889 19.5556 10.3889 19.5556 10.3889 19.5556C10.3889 19.8931 10.6625 20.1667 11 20.1667Z" fill="white"/>
</svg>
