<svg width="22" height="22" viewBox="0 0 22 22" fill="none" xmlns="http://www.w3.org/2000/svg">
<path d="M14.1556 15.125L10.3125 11.2819V4.8125H11.6875V10.7112L15.125 14.1556L14.1556 15.125Z" fill="white"/>
<path d="M11 1.375C9.71778 1.37518 8.44864 1.63266 7.26772 2.13219C6.08681 2.63171 5.01814 3.36313 4.125 4.28313V1.375H2.75V6.875H8.25V5.5H4.8675C6.15727 4.06677 7.9083 3.13055 9.81648 2.85395C11.7247 2.57736 13.6695 2.97785 15.3131 3.98588C16.9567 4.9939 18.1954 6.54579 18.8139 8.372C19.4325 10.1982 19.3918 12.1834 18.6991 13.9828C18.0063 15.7822 16.7052 17.2821 15.0217 18.222C13.3382 19.1619 11.3786 19.4825 9.48337 19.128C7.5881 18.7736 5.87685 17.7665 4.64681 16.2817C3.41677 14.7969 2.74565 12.9281 2.75 11H1.375C1.375 12.9036 1.9395 14.7645 2.99711 16.3474C4.05471 17.9302 5.55793 19.1638 7.31667 19.8923C9.07541 20.6208 11.0107 20.8114 12.8777 20.4401C14.7448 20.0687 16.4598 19.152 17.8059 17.8059C19.152 16.4598 20.0687 14.7448 20.4401 12.8777C20.8114 11.0107 20.6208 9.07541 19.8923 7.31667C19.1638 5.55793 17.9302 4.05471 16.3474 2.99711C14.7645 1.9395 12.9036 1.375 11 1.375Z" fill="white"/>
</svg>
