<svg width="22" height="18" viewBox="0 0 22 18" fill="none" xmlns="http://www.w3.org/2000/svg">
<path d="M7.33333 3.54365C5.82011 3.54365 4.52513 4.08201 3.44841 5.15873C2.37169 6.23545 1.83333 7.53042 1.83333 9.04365C1.83333 10.0112 2.07705 10.917 2.56448 11.7609L1.76786 12.2192C1.2004 11.2298 0.916667 10.1713 0.916667 9.04365C0.916667 7.8869 1.20403 6.81746 1.77877 5.83532C2.35351 4.8459 3.13194 4.06382 4.11409 3.48909C5.10351 2.91435 6.17659 2.62698 7.33333 2.62698H14.6667V0.335316L19.0317 2.85615L14.6667 5.37698V3.54365H7.33333ZM20.2321 5.86805C20.7996 6.85747 21.0833 7.916 21.0833 9.04365C21.0833 10.2004 20.796 11.2735 20.2212 12.2629C19.6465 13.245 18.8644 14.0235 17.875 14.5982C16.8929 15.1729 15.8234 15.4603 14.6667 15.4603H7.33333V17.752L2.96825 15.2312L7.33333 12.7103V14.5437H14.6667C16.1799 14.5437 17.4749 14.0053 18.5516 12.9286C19.6283 11.8519 20.1667 10.5569 20.1667 9.04365C20.1667 8.07606 19.9266 7.1703 19.4464 6.32639L20.2321 5.86805Z" fill="white"/>
</svg>
