<svg width="22" height="22" viewBox="0 0 22 22" fill="none" xmlns="http://www.w3.org/2000/svg">
<path d="M11.061 6.72223C8.67765 6.72223 6.7832 8.61667 6.7832 11C6.7832 13.3833 8.67765 15.2778 11.061 15.2778C13.4443 15.2778 15.3388 13.3833 15.3388 11C15.3388 8.61667 13.4443 6.72223 11.061 6.72223ZM11.061 14.0556C9.34987 14.0556 8.00543 12.7111 8.00543 11C8.00543 9.2889 9.34987 7.94445 11.061 7.94445C12.7721 7.94445 14.1165 9.2889 14.1165 11C14.1165 12.7111 12.7721 14.0556 11.061 14.0556Z" fill="white"/>
<path d="M20.0444 8.98334L18.3333 8.43334L17.9666 7.51667L18.8222 5.92778C19.0055 5.56112 18.9444 5.07223 18.6388 4.76667L17.1722 3.30001C16.8666 2.99445 16.3777 2.93334 16.0111 3.11667L14.4222 3.97223L13.5055 3.60556L12.9555 1.89445C12.8333 1.52778 12.4666 1.22223 12.0388 1.22223H9.96106C9.53328 1.22223 9.16661 1.52778 9.1055 1.95556L8.5555 3.66667C8.18883 3.72778 7.88328 3.85001 7.57772 4.03334L5.98883 3.17778C5.62217 2.99445 5.13328 3.05556 4.82772 3.36112L3.36106 4.82778C3.0555 5.13334 2.99439 5.62223 3.17772 5.9889L3.97217 7.51667C3.84995 7.82223 3.72772 8.18889 3.6055 8.49445L1.89439 9.04445C1.52772 9.16667 1.22217 9.53334 1.22217 9.96112V12.0389C1.22217 12.4667 1.52772 12.8333 1.9555 12.9556L3.66661 13.5056L4.03328 14.4222L3.17772 16.0111C2.99439 16.3778 3.0555 16.8667 3.36106 17.1722L4.82772 18.6389C5.13328 18.9444 5.62217 19.0056 5.98883 18.8222L7.57772 17.9667L8.49439 18.3333L9.04439 20.1056C9.16661 20.4722 9.53328 20.7778 9.96106 20.7778H12.0388C12.4666 20.7778 12.8333 20.4722 12.9555 20.1056L13.5055 18.3333L14.4222 17.9667L16.0111 18.8222C16.3777 19.0056 16.8666 18.9444 17.1722 18.6389L18.6388 17.1722C18.9444 16.8667 19.0055 16.3778 18.8222 16.0111L17.9666 14.4222L18.3333 13.5056L20.1055 12.9556C20.4722 12.8333 20.7777 12.4667 20.7777 12.0389V9.96112C20.7777 9.53334 20.4722 9.10556 20.0444 8.98334ZM19.5555 11.8556L17.3555 12.5278L17.2944 12.8333L16.7444 14.1167L16.5611 14.4222L17.6611 16.4389L16.4388 17.6611L14.4222 16.5611L14.1166 16.7444C13.6888 16.9889 13.2611 17.1722 12.8333 17.2944L12.5277 17.3556L11.8555 19.5556H10.1444L9.47217 17.3556L9.16661 17.2944L7.88328 16.7444L7.57772 16.5611L5.56106 17.6611L4.33883 16.4389L5.43883 14.4222L5.2555 14.1167C5.01106 13.6889 4.82772 13.2611 4.7055 12.8333L4.64439 12.5278L2.44439 11.8556V10.1445L4.52217 9.53334L4.64439 9.22778C4.76661 8.73889 4.94995 8.31112 5.19439 7.88334L5.37772 7.57778L4.33883 5.56112L5.56106 4.3389L7.51661 5.43889L7.82217 5.25556C8.24995 5.01112 8.67772 4.82778 9.16661 4.70556L9.47217 4.58334L10.1444 2.44445H11.8555L12.5277 4.58334L12.8333 4.70556C13.2611 4.82778 13.6888 5.01112 14.1166 5.25556L14.4222 5.43889L16.4388 4.3389L17.6611 5.56112L16.5611 7.57778L16.7444 7.88334C16.9888 8.31112 17.1722 8.73889 17.2944 9.16667L17.3555 9.47223L19.5555 10.1445V11.8556Z" fill="white"/>
</svg>
