<svg width="19" height="19" viewBox="0 0 19 19" fill="none" xmlns="http://www.w3.org/2000/svg">
<path d="M14.53 12.6667C14.1745 12.668 13.823 12.7412 13.4965 12.8818C13.17 13.0223 12.8752 13.2274 12.63 13.4847L6.19636 10.2653C6.35462 9.7854 6.35462 9.26738 6.19636 8.7875L12.6405 5.51C13.1021 5.99642 13.7281 6.29383 14.3967 6.34445C15.0654 6.39506 15.7289 6.19525 16.2585 5.78386C16.788 5.37247 17.1457 4.77888 17.262 4.11847C17.3782 3.45807 17.2448 2.77802 16.8876 2.21051C16.5304 1.643 15.975 1.22857 15.3292 1.04778C14.6835 0.866985 13.9936 0.93274 13.3937 1.23226C12.7937 1.53179 12.3266 2.04368 12.083 2.66845C11.8394 3.29322 11.8369 3.98623 12.0758 4.61278L5.69497 7.85861C5.35036 7.43715 4.88383 7.1326 4.35933 6.98668C3.83484 6.84077 3.27805 6.86065 2.7653 7.0436C2.25254 7.22655 1.80892 7.5636 1.49524 8.00856C1.18156 8.45353 1.01318 8.98462 1.01318 9.52903C1.01318 10.0734 1.18156 10.6045 1.49524 11.0495C1.80892 11.4945 2.25254 11.8315 2.7653 12.0145C3.27805 12.1974 3.83484 12.2173 4.35933 12.0714C4.88383 11.9255 5.35036 11.6209 5.69497 11.1994L12.06 14.4031C11.9524 14.6918 11.897 14.9974 11.8964 15.3056C11.8964 15.8275 12.0511 16.3377 12.3411 16.7716C12.6311 17.2056 13.0432 17.5438 13.5254 17.7436C14.0076 17.9433 14.5382 17.9956 15.0501 17.8937C15.562 17.7919 16.0322 17.5406 16.4012 17.1715C16.7703 16.8025 17.0216 16.3323 17.1234 15.8204C17.2253 15.3085 17.173 14.7779 16.9733 14.2957C16.7735 13.8135 16.4353 13.4014 16.0013 13.1114C15.5674 12.8214 15.0572 12.6667 14.5352 12.6667H14.53ZM14.53 2.11111C14.8431 2.11111 15.1492 2.20397 15.4096 2.37795C15.67 2.55193 15.8729 2.79921 15.9928 3.08853C16.1126 3.37785 16.144 3.6962 16.0829 4.00334C16.0218 4.31048 15.871 4.5926 15.6496 4.81403C15.4281 5.03547 15.146 5.18626 14.8389 5.24736C14.5317 5.30845 14.2134 5.27709 13.9241 5.15726C13.6347 5.03742 13.3875 4.83448 13.2135 4.5741C13.0395 4.31372 12.9466 4.0076 12.9466 3.69445C12.9466 3.27452 13.1135 2.87179 13.4104 2.57486C13.7073 2.27793 14.11 2.11111 14.53 2.11111ZM3.69469 11.0833C3.38154 11.0833 3.07542 10.9905 2.81504 10.8165C2.55466 10.6425 2.35172 10.3952 2.23189 10.1059C2.11205 9.8166 2.08069 9.49825 2.14179 9.19111C2.20288 8.88397 2.35368 8.60185 2.57511 8.38042C2.79654 8.15898 3.07867 8.00818 3.3858 7.94709C3.69294 7.886 4.01129 7.91735 4.30061 8.03719C4.58993 8.15703 4.83721 8.35997 5.01119 8.62035C5.18517 8.88073 5.27803 9.18685 5.27803 9.5C5.27803 9.91993 5.11121 10.3227 4.81428 10.6196C4.51735 10.9165 4.11462 11.0833 3.69469 11.0833ZM14.53 16.8889C14.2168 16.8889 13.9107 16.796 13.6503 16.6221C13.3899 16.4481 13.187 16.2008 13.0672 15.9115C12.9473 15.6222 12.916 15.3038 12.9771 14.9967C13.0382 14.6895 13.189 14.4074 13.4104 14.186C13.6318 13.9645 13.9139 13.8137 14.2211 13.7526C14.5282 13.6916 14.8466 13.7229 15.1359 13.8427C15.4252 13.9626 15.6725 14.1655 15.8465 14.4259C16.0204 14.6863 16.1133 14.9924 16.1133 15.3056C16.1133 15.7255 15.9465 16.1282 15.6496 16.4251C15.3526 16.7221 14.9499 16.8889 14.53 16.8889Z" fill="white"/>
</svg>
