<svg width="19" height="15" viewBox="0 0 19 15" fill="none" xmlns="http://www.w3.org/2000/svg">
<path d="M4.625 5.50198L4.49603 5.25397C3.93386 4.62566 3.26587 4.13624 2.49206 3.78571C1.72487 3.42857 0.934524 3.25 0.121032 3.25V2C1.13955 2 2.12169 2.21825 3.06746 2.65476C4.01323 3.08465 4.82341 3.69973 5.49802 4.5L4.625 5.50198ZM14 11.375V9.5L18.375 12L14 14.5V12.625C13.1071 12.625 12.244 12.4663 11.4107 12.1488C10.584 11.8313 9.8631 11.3651 9.24802 10.75L10.002 9.74802C11.2189 10.8327 12.5516 11.375 14 11.375ZM14 3.875C13.1865 3.875 12.3929 4.05357 11.619 4.41071C10.8519 4.76124 10.1872 5.25066 9.625 5.87897L5.37897 10.75C4.76389 11.5503 3.99008 12.1687 3.05754 12.6052C2.125 13.0351 1.14616 13.25 0.121032 13.25V12C0.934524 12 1.72487 11.8247 2.49206 11.4742C3.26587 11.1171 3.93386 10.6243 4.49603 9.99603L8.75198 5.125C9.36706 4.32473 10.1409 3.70966 11.0734 3.27976C12.006 2.84325 12.9815 2.625 14 2.625V0.749999L18.375 3.25L14 5.75V3.875Z" fill="white"/>
</svg>
